<svg width="221" height="76" viewBox="0 0 221 76" fill="none" xmlns="http://www.w3.org/2000/svg">
<path d="M14.9559 67.7808V61.507C8.30177 60.3663 3.73896 56.2471 2.66164 49.086H9.50584C10.1396 53.6488 13.8785 56.1203 19.0751 56.1203C24.1448 56.1203 26.8065 53.5854 26.8065 50.0366C26.8065 39.5802 3.61222 46.6779 3.61222 30.9615C3.61222 25.5749 7.5413 20.5685 14.9559 19.6179V13.4708H21.3565V19.7447C27.2501 20.8854 31.8129 24.6877 32.5733 31.8488H25.6658C24.9687 27.1592 21.9268 25.1313 17.364 25.1313C12.9279 25.1313 10.5832 27.4761 10.5832 30.9615C10.5832 40.5308 33.7774 34.0034 33.7774 49.4029C33.7774 56.5639 28.6443 60.9366 21.3565 61.6971V67.7808H14.9559ZM52.8634 61.8238C42.6604 61.8238 36.7668 53.9657 36.7668 40.6575C36.7668 27.0325 42.7872 19.4278 52.8634 19.4278C63.0029 19.4278 68.8965 27.286 68.8965 40.6575C68.8965 54.2825 62.8762 61.8238 52.8634 61.8238ZM52.8634 56.057C58.757 56.057 61.989 50.6069 61.989 40.6575C61.989 30.7714 58.6936 25.1947 52.8634 25.1947C46.9697 25.1947 43.6744 30.6447 43.6744 40.6575C43.6744 50.4168 46.9697 56.057 52.8634 56.057ZM72.7731 61V53.2052H80.6313V61H72.7731ZM116.457 47.375C116.457 55.7401 111.134 61.8238 101.121 61.8238C91.9324 61.8238 86.2922 57.1343 85.1515 49.3395H91.9324C92.6295 53.5221 95.6079 56.1203 101.058 56.1203C106.761 56.1203 109.677 52.8884 109.677 47.5017C109.677 43.0023 107.522 38.5662 100.995 38.5662C96.6853 38.5662 94.2138 40.4674 92.8196 42.5587L86.7358 41.9883L88.0033 20.2516H114.493V25.5749H93.4533L92.8196 35.6511C95.101 34.0034 97.826 32.9261 101.565 32.9261C112.275 32.9261 116.457 39.6435 116.457 47.375Z" fill="white"/>
<path d="M131.665 61V45.4865H135.11L139.491 56.2319L140.015 57.8745L140.54 56.2319L144.875 45.4865H148.228V61H145.673L145.742 48.4295L144.624 51.7603L140.859 61H139.034L135.247 51.7375L134.152 48.4979L134.221 61H131.665ZM151.789 61V45.4865H154.344V61H151.789ZM157.899 61V45.4865H160.454V58.9239H167.96V61H157.899ZM170.537 61V45.4865H173.092V58.9239H180.598V61H170.537ZM183.174 61V45.4865H185.729V61H183.174ZM196.197 61.2966C191.566 61.2966 188.737 58.2395 188.737 53.266C188.737 48.2926 191.566 45.1899 196.197 45.1899C200.782 45.1899 203.634 48.2926 203.634 53.266C203.634 58.2395 200.782 61.2966 196.197 61.2966ZM196.197 59.1521C199.231 59.1521 201.033 56.9163 201.033 53.266C201.033 49.593 199.231 47.3344 196.197 47.3344C193.163 47.3344 191.337 49.593 191.337 53.266C191.337 56.9163 193.163 59.1521 196.197 59.1521ZM206.645 61V45.4865H209.314L215.816 55.6159L216.797 57.441L216.729 45.4865H219.284V61H216.615L210.136 50.9162L209.132 49.0226L209.2 61H206.645Z" fill="#A6A3A0"/>
</svg>
